HIERARCHY
ROOT Hips
{
	OFFSET	0.00	0.00	0.00
	CHANNELS 6 Xposition Yposition Zposition Zrotation Xrotation Yrotation
	JOINT LeftUpLeg
	{
		OFFSET	 0.126116	-0.014019	-0.065224
		CHANNELS 3 Zrotation Xrotation Yrotation
		JOINT LeftLeg
		{
			OFFSET	 0.000000	 0.000000	 0.569914
			CHANNELS 3 Zrotation Xrotation Yrotation
			JOINT LeftFoot
			{
				OFFSET	 0.000000	 0.000000	 0.544423
				CHANNELS 3 Zrotation Xrotation Yrotation
				JOINT LeftToeBase
				{
					OFFSET	 0.000000	 0.000000	 0.207117
					CHANNELS 3 Zrotation Xrotation Yrotation
					End Site
					{
						OFFSET	 0.000000	 0.000000	 0.207117
					}
				}
			}
		}
	}
	JOINT RightUpLeg
	{
		OFFSET	-0.124023	-0.008373	-0.065224
		CHANNELS 3 Zrotation Xrotation Yrotation
		JOINT RightLeg
		{
			OFFSET	 0.000000	 0.000000	 0.570047
			CHANNELS 3 Zrotation Xrotation Yrotation
			JOINT RightFoot
			{
				OFFSET	 0.000000	 0.000000	 0.544354
				CHANNELS 3 Zrotation Xrotation Yrotation
				JOINT RightToeBase
				{
					OFFSET	 0.000000	 0.000000	 0.207540
					CHANNELS 3 Zrotation Xrotation Yrotation
					End Site
					{
						OFFSET	 0.000000	 0.000000	 0.207540
					}
				}
			}
		}
	}
	JOINT Spine
	{
		OFFSET	 0.000184	-0.007763	 0.117403
		CHANNELS 3 Zrotation Xrotation Yrotation
		JOINT Spine1
		{
			OFFSET	 0.000000	 0.000000	 0.137269
			CHANNELS 3 Zrotation Xrotation Yrotation
			JOINT Spine2
			{
				OFFSET	 0.000000	 0.000000	 0.156879
				CHANNELS 3 Zrotation Xrotation Yrotation
				JOINT LeftShoulder
				{
					OFFSET	 0.080501	-0.002496	 0.160144
					CHANNELS 3 Zrotation Xrotation Yrotation
					JOINT LeftArm
					{
						OFFSET	 0.000000	 0.000000	 0.164363
						CHANNELS 3 Zrotation Xrotation Yrotation
						JOINT LeftForeArm
						{
							OFFSET	 0.000000	 0.000000	 0.364576
							CHANNELS 3 Zrotation Xrotation Yrotation
							JOINT LeftHand
							{
								OFFSET	 0.000000	 0.000000	 0.360812
								CHANNELS 3 Zrotation Xrotation Yrotation
								JOINT LeftHandIndex1
								{
									OFFSET	 0.000000	 0.000000	 0.086006
									CHANNELS 3 Zrotation Xrotation Yrotation
									JOINT LeftHandIndex2
									{
										OFFSET	 0.000000	 0.000000	 0.047236
										CHANNELS 3 Zrotation Xrotation Yrotation
										JOINT LeftHandIndex3
										{
											OFFSET	-0.004284	-0.000551	 0.038166
											CHANNELS 3 Zrotation Xrotation Yrotation
											End Site
											{
												OFFSET	-0.004284	-0.000551	 0.038166
											}
										}
									}
								}
							}
						}
					}
				}
				JOINT Neck
				{
					OFFSET	 0.000000	 0.000000	 0.176489
					CHANNELS 3 Zrotation Xrotation Yrotation
					JOINT Head
					{
						OFFSET	 0.000000	-0.001747	 0.077940
						CHANNELS 3 Zrotation Xrotation Yrotation
						End Site
						{
							OFFSET	 0.000000	-0.001747	 0.077940
						}
					}
				}
				JOINT RightShoulder
				{
					OFFSET	-0.080363	 0.000306	 0.159706
					CHANNELS 3 Zrotation Xrotation Yrotation
					JOINT RightArm
					{
						OFFSET	 0.000000	 0.000000	 0.164196
						CHANNELS 3 Zrotation Xrotation Yrotation
						JOINT RightForeArm
						{
							OFFSET	 0.000000	 0.000000	 0.365611
							CHANNELS 3 Zrotation Xrotation Yrotation
							JOINT RightHand
							{
								OFFSET	 0.000000	 0.000000	 0.360648
								CHANNELS 3 Zrotation Xrotation Yrotation
								JOINT RightHandIndex1
								{
									OFFSET	 0.000000	 0.000000	 0.069977
									CHANNELS 3 Zrotation Xrotation Yrotation
									JOINT RightHandIndex2
									{
										OFFSET	 0.000000	 0.000000	 0.052305
										CHANNELS 3 Zrotation Xrotation Yrotation
										JOINT RightHandIndex3
										{
											OFFSET	 0.009002	-0.000782	 0.042196
											CHANNELS 3 Zrotation Xrotation Yrotation
											End Site
											{
												OFFSET	 0.009002	-0.000782	 0.042196
											}
										}
									}
								}
							}
						}
					}
				}
			}
		}
	}
}
MOTION
Frames:    5
Frame Time: 0.03333334
-0.000658	 0.048926	 1.275513	-0.032801	 3.309435	 0.516445	 14.564380	-6.906838	 177.475100	 2.148599	-11.864910	 0.527746	 0.364027	 69.560260	-0.474397	-2.385833	 28.452750	 0.000004	-7.177422	-6.370567	-177.672300	-0.787137	-10.375780	 0.786566	 4.234102	 68.734200	 2.172546	 2.384659	 28.388700	-0.000001	-15.733100	 6.945202	 1.489122	-3.165708	-4.391981	-0.208806	 9.620728	 7.896057	-0.883785	-90.982600	 68.524590	-177.419000	-7.706391	 4.023157	-25.782990	 21.150710	 0.131137	-3.269032	-10.001290	-25.909950	-5.902458	-2.027600	 6.559038	 9.033609	-5.188889	 0.308190	 3.541030	-5.234859	 0.342567	 0.430617	 4.698440	 21.202470	-7.753935	 5.054085	-16.335380	 2.301390	 88.739240	 66.800350	 176.844500	 7.391059	 9.112482	 11.127960	-22.790330	-6.120862	 25.060320	 7.149256	-25.208730	 6.977775	 1.803333	 3.979147	-15.098590	 4.898592	 3.004813	-9.310344	 5.224449	 0.395017	 2.014677
-0.001544	 0.057501	 1.274181	 0.067901	 4.592454	 0.638437	 14.907650	-9.309622	 177.732800	 2.175665	-12.952180	 0.580894	 1.879002	 69.625890	-2.195193	-2.385833	 28.452760	 0.000004	-7.892581	-8.495416	-178.126600	-0.797922	-11.003060	 0.831470	 2.810365	 68.586210	 3.774211	 2.384659	 28.388700	-0.000001	-22.254930	 7.635582	 1.572392	-3.119620	-5.055891	-0.143612	 9.332457	 9.573318	-1.134054	-90.823780	 67.347860	-177.131500	-5.776293	 6.529783	-29.578520	 17.014200	 0.608111	-5.320003	-10.521860	-29.252570	-7.951384	-2.027600	 6.559038	 9.033609	-5.188889	 0.308190	 3.541030	-5.234859	 0.342567	 0.430617	 4.745283	 24.637250	-8.723499	 5.463233	-19.254810	 2.531433	 88.428990	 64.563090	 176.363800	 5.134575	 11.368900	 13.646680	-19.726630	-4.409192	 27.518620	 6.626169	-27.640830	 7.484583	 1.803333	 3.979147	-15.098590	 4.898592	 3.004813	-9.310344	 5.224449	 0.395017	 2.014677
-0.002759	 0.072767	 1.272698	 0.287805	 7.006565	 0.795465	 15.193790	-13.838390	 178.355800	 2.136997	-15.169700	 0.668617	 4.988468	 69.829330	-5.652308	-2.385832	 28.452790	-0.000001	-9.054286	-12.196190	-178.972700	-1.350893	-11.612180	 0.765034	 0.594199	 68.098530	 6.876783	 2.384659	 28.388700	-0.000001	-29.921440	 8.547899	 1.548058	-2.824896	-4.995755	 0.183321	 8.415443	 11.018350	-1.464196	-90.992150	 65.365260	-177.880100	-3.103609	 8.686830	-34.089990	 9.886876	 1.629365	-7.991035	-13.743320	-32.872170	-11.985450	-2.027600	 6.559038	 9.033609	-5.188889	 0.308190	 3.541030	-5.234859	 0.342567	 0.430617	 4.136305	 26.661150	-8.816334	 5.386940	-21.401420	 2.407918	 88.521870	 61.642840	 176.996900	 1.001642	 13.155120	 15.730210	-14.831660	-1.600057	 32.699640	 6.715977	-30.296080	 9.415412	 1.803333	 3.979147	-15.098590	 4.898592	 3.004813	-9.310344	 5.224449	 0.395017	 2.014677
-0.003505	 0.090517	 1.270499	 0.675064	 9.988945	 0.782959	 15.250880	-18.855660	 179.383100	 2.051058	-17.038620	 0.723452	 8.746562	 69.420010	-9.863786	-2.385833	 28.452760	 0.000004	-10.154240	-17.065830	-179.890400	-1.610963	-13.152620	 0.805418	-2.235233	 67.893850	 10.422040	 2.384659	 28.388700	-0.000001	-35.680190	 9.287601	 1.443054	-2.379316	-4.931165	 0.400013	 7.209662	 11.792110	-1.360929	-91.948760	 64.861430	 179.544400	-0.937412	 11.461350	-36.266510	 4.793573	 2.926992	-10.342950	-16.936970	-34.978550	-15.751730	-2.027600	 6.559038	 9.033609	-5.188889	 0.308190	 3.541030	-5.234859	 0.342567	 0.430617	 3.461088	 26.456630	-8.820584	 4.831311	-22.134230	 2.225019	 89.423780	 60.656310	 179.174600	-3.357744	 16.235060	 16.550980	-10.885210	 1.565407	 37.296310	 7.469672	-32.586780	 11.481650	 1.803333	 3.979147	-15.098590	 4.898592	 3.004813	-9.310344	 5.224449	 0.395017	 2.014677
-0.005756	 0.109766	 1.267322	 1.404614	 14.017160	 0.806667	 14.803510	-24.847130	-179.568600	 2.431945	-18.888540	 0.922817	 12.527020	 69.004200	-14.669860	-2.385832	 28.452790	-0.000001	-11.536380	-23.091530	 178.793000	-1.567490	-15.542140	 0.960088	-6.307136	 68.190120	 15.104420	 2.384659	 28.388700	-0.000001	-39.521000	 9.754104	 1.264907	-1.979742	-3.706252	 0.486719	 5.681820	 11.181900	-0.984250	-93.052280	 65.215230	 176.575200	 0.582442	 13.455710	-37.649430	 1.460475	 4.434370	-12.413330	-19.072420	-36.252010	-18.466390	-2.027600	 6.559038	 9.033609	-5.188889	 0.308190	 3.541030	-5.234859	 0.342567	 0.430617	 2.898423	 24.818200	-8.806810	 3.854377	-22.062830	 1.819684	 90.587590	 60.382660	-178.161400	-7.755147	 19.677240	 18.215690	-7.212779	 5.293067	 42.110530	 9.357101	-34.446570	 13.805690	 1.803333	 3.979147	-15.098590	 4.898592	 3.004813	-9.310344	 5.224449	 0.395017	 2.014677
